<svg width="10" height="10" viewBox="0 0 10 10" fill="none" xmlns="http://www.w3.org/2000/svg">
<path d="M1.46226 1.46222C-0.487432 3.41182 -0.487403 6.58804 1.46225 8.53778C3.41189 10.4874 6.5881 10.4874 8.53774 8.53778C10.4874 6.58811 10.4874 3.41182 8.53775 1.46222C6.58811 -0.487372 3.4119 -0.487444 1.46226 1.46222ZM2.1698 2.16981C3.61595 0.723715 5.8696 0.627913 7.44188 1.8505L1.85058 7.44201C0.627982 5.8697 0.723646 3.61597 2.1698 2.16981ZM2.55812 8.1495L8.14942 2.55808C9.37127 4.13039 9.27607 6.38439 7.8302 7.83019C6.38435 9.27607 4.13037 9.3713 2.55812 8.1495Z" fill="#FF4242"/>
</svg>
