<svg width="49" height="50" viewBox="0 0 49 50" fill="none" xmlns="http://www.w3.org/2000/svg">
<path d="M24.3644 48.76C37.1531 48.76 47.5204 38.1223 47.5204 25C47.5204 11.8777 37.1531 1.23999 24.3644 1.23999C11.5758 1.23999 1.2085 11.8777 1.2085 25C1.2085 38.1223 11.5758 48.76 24.3644 48.76Z" fill="#F9F9F9" stroke="#141517" stroke-width="2.4"/>
<path d="M8.3522 7.84L9.8628 9.42M4.50263 33.06C6.7539 35.37 9.74585 35.01 12.5526 35.08M7.44585 14.68C2.66068 18.19 1.50093 25.32 1.67635 25.28M14.1312 15.44C12.182 19 13.7606 29.74 18.6335 32.74M16.0319 4.51C17.5619 2.94 20.5734 1.84 24.5399 1.22M19.3162 39.88C18.8289 41.2 19.0336 45.49 19.3162 47.44M19.9204 8.61C22.6687 8.93 27.6391 9.35 31.5764 11.64M27.6391 38.08C30.6603 39.81 33.9641 40.55 37.9696 39.88M34.656 19.8C33.1354 25.28 28.2626 30 25.3388 31.5M36.9658 7.97C35.884 5.9 34.081 4.22 32.1026 2.63M43.2713 15.44C44.2459 15.47 45.1912 15.88 46.0975 16.85M41.8289 21.8C43.3687 24.77 43.5929 28.98 43.817 33.2" stroke="#111111" stroke-width="2.4"/>
</svg>
