<svg width="15" height="14" viewBox="0 0 15 14" fill="none" xmlns="http://www.w3.org/2000/svg">
<path fill-rule="evenodd" clip-rule="evenodd" d="M8.18182 1.90909V0H6.81818V1.90909H4.77273C2.13683 1.90909 0 3.90345 0 6.36364V12.0137C0 13.1107 0.952818 14 2.12817 14C2.6926 14 3.23391 13.7908 3.63302 13.4182L6.41882 10.8182H8.58118L11.367 13.4182C11.7661 13.7908 12.3074 14 12.8718 14C14.0472 14 15 13.1107 15 12.0137V6.36364C15 3.90345 12.8632 1.90909 10.2273 1.90909H8.18182ZM13.6364 6.36364C13.6364 4.60636 12.1101 3.18182 10.2273 3.18182H4.77273C2.88994 3.18182 1.36364 4.60636 1.36364 6.36364V12.0137C1.36364 12.4078 1.70593 12.7273 2.12817 12.7273C2.33094 12.7273 2.5254 12.6521 2.66878 12.5183L5.85391 9.54545H9.14609L12.3312 12.5183C12.4746 12.6521 12.6691 12.7273 12.8718 12.7273C13.2941 12.7273 13.6364 12.4078 13.6364 12.0137V6.36364ZM2.72727 7.63636V6.36364H4.09091V5.09091H5.45455V6.36364H6.81818V7.63636H5.45455V8.90909H4.09091V7.63636H2.72727ZM10.2273 6.04545C10.2273 6.57262 9.76936 7 9.20455 7C8.63973 7 8.18182 6.57262 8.18182 6.04545C8.18182 5.51829 8.63973 5.09091 9.20455 5.09091C9.76936 5.09091 10.2273 5.51829 10.2273 6.04545ZM11.25 8.90909C11.8148 8.90909 12.2727 8.48171 12.2727 7.95455C12.2727 7.42738 11.8148 7 11.25 7C10.6852 7 10.2273 7.42738 10.2273 7.95455C10.2273 8.48171 10.6852 8.90909 11.25 8.90909Z" fill="#F9F9F9"/>
</svg>
