<svg width="50" height="50" viewBox="0 0 50 50" fill="none" xmlns="http://www.w3.org/2000/svg">
<path d="M24.9999 34.9999C19.477 34.9999 14.9999 30.5227 14.9999 24.9999C14.9999 19.4771 19.477 14.9999 24.9999 14.9999C30.5227 14.9999 34.9999 19.4771 34.9999 24.9999C34.9999 30.5227 30.5227 34.9999 24.9999 34.9999Z" fill="#F9F9F9"/>
<path d="M5.62837 28.4161C2.73045 28.9271 0.744087 31.7264 1.8565 34.4508C3.40957 38.2541 5.88729 41.6427 9.09947 44.2907C13.6927 48.0769 19.486 50.1 25.4377 49.9962C31.3893 49.8924 37.1087 47.6682 41.567 43.7239C44.6847 40.9656 47.0427 37.4924 48.4622 33.6373C49.4788 30.8758 47.3958 28.1475 44.4818 27.738C41.568 27.3285 38.9517 29.4494 37.5123 32.0161C36.7322 33.4073 35.7193 34.6694 34.506 35.7429C31.948 38.0061 28.6665 39.2821 25.2518 39.3417C21.837 39.4012 18.513 38.2406 15.8777 36.0681C14.6275 35.0376 13.5713 33.8116 12.743 32.4484C11.215 29.9336 8.52629 27.9051 5.62837 28.4161Z" fill="#F9F9F9"/>
<path d="M49.8067 28.1241C49.9343 27.1006 50 26.0579 50 24.9999C50 11.1928 38.8072 0 25 0C11.1929 0 0 11.1928 0 24.9999C0 26.3577 0.10825 27.6902 0.3166 28.9894C1.4649 27.4174 3.2571 26.2952 5.19293 25.9539C7.28742 25.5846 9.19097 26.0926 10.8005 27.0421C10.7054 26.3751 10.6562 25.6932 10.6562 24.9999C10.6562 17.0781 17.0782 10.6561 25 10.6561C32.9218 10.6561 39.3438 17.0781 39.3438 24.9999C39.3438 25.5222 39.3158 26.0381 39.2615 26.5459C40.837 25.5404 42.722 24.9659 44.8285 25.2621C46.7745 25.5356 48.6042 26.5939 49.8067 28.1241Z" fill="#F9F9F9"/>
</svg>
