<svg width="12" height="12" viewBox="0 0 12 12" fill="none" xmlns="http://www.w3.org/2000/svg">
<path d="M4.785 6.23L3.26 7.755M3.275 6.245L4.8 7.77M6.765 7L6.77 7M8.735 7L8.74 7M7.75 7.99L7.75 7.98M7.75 6.02L7.75 6.01M6.505 1L6.5 1.505C6.495 1.78 6.275 2 6 2L5.985 2C5.71 2 5.49 2.225 5.49 2.5C5.49 2.775 5.715 3 5.99 3L6.49 3M4.5 11L7.5 11C10 11 11 10 11 7.5L11 6.5C11 4 10 3 7.5 3L4.5 3C2 3 1 4 1 6.5L1 7.5C1 10 2 11 4.5 11Z" stroke="#F9F9F9" stroke-linecap="round" stroke-linejoin="round"/>
</svg>
