<svg width="15" height="14" viewBox="0 0 15 14" fill="none" xmlns="http://www.w3.org/2000/svg">
<path d="M3.375 7H0.375C0.275544 7 0.180161 7.04609 0.109835 7.12814C0.0395089 7.21019 0 7.32147 0 7.4375V14H3.75V7.4375C3.75 7.32147 3.71049 7.21019 3.64016 7.12814C3.56984 7.04609 3.47446 7 3.375 7Z" fill="#F9F9F9"/>
<path d="M9 0H6C5.90054 0 5.80516 0.0460937 5.73483 0.128141C5.66451 0.210188 5.625 0.321468 5.625 0.4375V14H9.375V0.4375C9.375 0.321468 9.33549 0.210188 9.26516 0.128141C9.19484 0.0460937 9.09946 0 9 0Z" fill="#F9F9F9"/>
<path d="M14.625 3.5H11.625C11.5255 3.5 11.4302 3.54609 11.3598 3.62814C11.2895 3.71019 11.25 3.82147 11.25 3.9375V14H15V3.9375C15 3.82147 14.9605 3.71019 14.8902 3.62814C14.8198 3.54609 14.7245 3.5 14.625 3.5Z" fill="#F9F9F9"/>
</svg>
