<svg width="188" height="50" viewBox="0 0 188 50" fill="none" xmlns="http://www.w3.org/2000/svg">
<path d="M24.9999 34.9999C19.477 34.9999 14.9999 30.5227 14.9999 24.9999C14.9999 19.4771 19.477 14.9999 24.9999 14.9999C30.5227 14.9999 34.9999 19.4771 34.9999 24.9999C34.9999 30.5227 30.5227 34.9999 24.9999 34.9999Z" fill="#F9F9F9"/>
<path d="M5.62837 28.4161C2.73045 28.9271 0.744087 31.7264 1.8565 34.4508C3.40957 38.2541 5.88729 41.6427 9.09947 44.2907C13.6927 48.0769 19.486 50.1 25.4377 49.9962C31.3893 49.8924 37.1087 47.6682 41.567 43.7239C44.6847 40.9656 47.0427 37.4924 48.4622 33.6373C49.4788 30.8758 47.3958 28.1475 44.4818 27.738C41.568 27.3285 38.9517 29.4494 37.5123 32.0161C36.7322 33.4073 35.7193 34.6694 34.506 35.7429C31.948 38.0061 28.6665 39.2821 25.2518 39.3417C21.837 39.4012 18.513 38.2406 15.8777 36.0681C14.6275 35.0376 13.5713 33.8116 12.743 32.4484C11.215 29.9336 8.52629 27.9051 5.62837 28.4161Z" fill="#F9F9F9"/>
<path d="M49.8067 28.1241C49.9343 27.1006 50 26.0579 50 24.9999C50 11.1928 38.8072 0 25 0C11.1929 0 0 11.1928 0 24.9999C0 26.3577 0.10825 27.6902 0.3166 28.9894C1.4649 27.4174 3.2571 26.2952 5.19293 25.9539C7.28742 25.5846 9.19097 26.0926 10.8005 27.0421C10.7054 26.3751 10.6562 25.6932 10.6562 24.9999C10.6562 17.0781 17.0782 10.6561 25 10.6561C32.9218 10.6561 39.3438 17.0781 39.3438 24.9999C39.3438 25.5222 39.3158 26.0381 39.2615 26.5459C40.837 25.5404 42.722 24.9659 44.8285 25.2621C46.7745 25.5356 48.6042 26.5939 49.8067 28.1241Z" fill="#F9F9F9"/>
<path d="M66.944 31V15.112H74.096C75.792 15.112 77.128 15.576 78.104 16.504C79.08 17.416 79.568 18.656 79.568 20.224C79.568 21.792 79.08 23.04 78.104 23.968C77.128 24.88 75.792 25.336 74.096 25.336H68.744V31H66.944ZM68.744 23.656H73.976C75.224 23.656 76.168 23.352 76.808 22.744C77.448 22.136 77.768 21.296 77.768 20.224C77.768 19.168 77.448 18.336 76.808 17.728C76.168 17.12 75.224 16.816 73.976 16.816H68.744V23.656ZM86.8383 31.192C85.6223 31.192 84.5663 30.92 83.6703 30.376C82.7743 29.816 82.0863 29.064 81.6063 28.12C81.1263 27.176 80.8863 26.136 80.8863 25C80.8863 23.848 81.1263 22.808 81.6063 21.88C82.0863 20.936 82.7743 20.192 83.6703 19.648C84.5663 19.088 85.6223 18.808 86.8383 18.808C88.0703 18.808 89.1263 19.088 90.0063 19.648C90.9023 20.192 91.5903 20.936 92.0703 21.88C92.5503 22.808 92.7903 23.848 92.7903 25C92.7903 26.136 92.5503 27.176 92.0703 28.12C91.5903 29.064 90.9023 29.816 90.0063 30.376C89.1263 30.92 88.0703 31.192 86.8383 31.192ZM86.8383 29.56C87.7343 29.56 88.4863 29.352 89.0943 28.936C89.7183 28.52 90.1903 27.968 90.5103 27.28C90.8303 26.576 90.9903 25.816 90.9903 25C90.9903 24.168 90.8303 23.408 90.5103 22.72C90.1903 22.032 89.7183 21.48 89.0943 21.064C88.4863 20.648 87.7343 20.44 86.8383 20.44C85.9583 20.44 85.2063 20.648 84.5823 21.064C83.9583 21.48 83.4863 22.032 83.1663 22.72C82.8463 23.408 82.6863 24.168 82.6863 25C82.6863 25.816 82.8463 26.576 83.1663 27.28C83.4863 27.968 83.9583 28.52 84.5823 28.936C85.2063 29.352 85.9583 29.56 86.8383 29.56ZM95.1772 31V19H96.9772V20.872C97.4092 20.296 97.9372 19.808 98.5612 19.408C99.1852 19.008 99.9852 18.808 100.961 18.808C101.793 18.808 102.569 19.008 103.289 19.408C104.025 19.792 104.617 20.376 105.065 21.16C105.529 21.928 105.761 22.88 105.761 24.016V31H103.961V24.064C103.961 22.976 103.649 22.104 103.025 21.448C102.401 20.776 101.593 20.44 100.601 20.44C99.9292 20.44 99.3212 20.592 98.7772 20.896C98.2332 21.2 97.7932 21.632 97.4572 22.192C97.1372 22.736 96.9772 23.368 96.9772 24.088V31H95.1772ZM114.267 35.944C112.763 35.944 111.539 35.616 110.595 34.96C109.651 34.32 109.011 33.48 108.675 32.44H110.667C110.907 33.032 111.323 33.488 111.915 33.808C112.507 34.144 113.259 34.312 114.171 34.312C115.547 34.312 116.547 33.984 117.171 33.328C117.811 32.688 118.131 31.752 118.131 30.52V28.864C117.683 29.504 117.099 30.024 116.379 30.424C115.675 30.808 114.827 31 113.835 31C112.667 31 111.643 30.736 110.763 30.208C109.899 29.664 109.227 28.928 108.747 28C108.267 27.072 108.027 26.04 108.027 24.904C108.027 23.752 108.267 22.72 108.747 21.808C109.227 20.88 109.899 20.152 110.763 19.624C111.643 19.08 112.667 18.808 113.835 18.808C114.827 18.808 115.675 19 116.379 19.384C117.099 19.752 117.683 20.264 118.131 20.92V19H119.931V30.64C119.931 32.352 119.435 33.664 118.443 34.576C117.467 35.488 116.075 35.944 114.267 35.944ZM114.075 29.368C114.955 29.368 115.699 29.168 116.307 28.768C116.931 28.368 117.403 27.832 117.723 27.16C118.059 26.472 118.227 25.72 118.227 24.904C118.227 24.072 118.059 23.32 117.723 22.648C117.403 21.976 116.931 21.44 116.307 21.04C115.699 20.64 114.955 20.44 114.075 20.44C113.195 20.44 112.435 20.64 111.795 21.04C111.155 21.44 110.667 21.976 110.331 22.648C109.995 23.32 109.827 24.072 109.827 24.904C109.827 25.72 109.995 26.472 110.331 27.16C110.667 27.832 111.155 28.368 111.795 28.768C112.435 29.168 113.195 29.368 114.075 29.368ZM123.428 31V15.112H131.036C132.668 15.112 133.964 15.56 134.924 16.456C135.9 17.352 136.388 18.56 136.388 20.08C136.388 21.104 136.188 21.92 135.788 22.528C135.404 23.136 134.916 23.6 134.324 23.92C133.732 24.224 133.14 24.448 132.548 24.592L136.724 31H134.588L130.748 24.904H125.228V31H123.428ZM125.228 23.2H130.724C131.3 23.2 131.884 23.112 132.476 22.936C133.068 22.76 133.564 22.448 133.964 22C134.38 21.536 134.588 20.896 134.588 20.08C134.588 19.072 134.244 18.28 133.556 17.704C132.868 17.112 131.956 16.816 130.82 16.816H125.228V23.2ZM143.779 31.192C142.963 31.192 142.187 31 141.451 30.616C140.715 30.216 140.115 29.632 139.651 28.864C139.203 28.08 138.979 27.12 138.979 25.984V19H140.779V25.936C140.779 27.024 141.091 27.904 141.715 28.576C142.355 29.232 143.163 29.56 144.139 29.56C144.811 29.56 145.419 29.408 145.963 29.104C146.507 28.784 146.939 28.352 147.259 27.808C147.595 27.264 147.763 26.632 147.763 25.912V19H149.563V31H147.763V29.128C147.331 29.704 146.803 30.192 146.179 30.592C145.555 30.992 144.755 31.192 143.779 31.192ZM157.061 31.192C155.957 31.192 155.021 31.008 154.253 30.64C153.501 30.272 152.925 29.792 152.525 29.2C152.125 28.592 151.901 27.936 151.853 27.232H153.725C153.773 27.632 153.909 28.024 154.133 28.408C154.373 28.776 154.733 29.08 155.213 29.32C155.693 29.544 156.317 29.656 157.085 29.656C157.325 29.656 157.621 29.632 157.973 29.584C158.325 29.536 158.661 29.448 158.981 29.32C159.317 29.192 159.597 29 159.821 28.744C160.045 28.488 160.157 28.16 160.157 27.76C160.157 27.264 159.965 26.88 159.581 26.608C159.197 26.336 158.701 26.128 158.093 25.984C157.485 25.824 156.837 25.672 156.149 25.528C155.477 25.384 154.837 25.2 154.229 24.976C153.621 24.736 153.125 24.408 152.741 23.992C152.357 23.56 152.165 22.976 152.165 22.24C152.165 21.152 152.557 20.312 153.341 19.72C154.141 19.112 155.317 18.808 156.869 18.808C157.925 18.808 158.781 18.976 159.437 19.312C160.109 19.632 160.613 20.048 160.949 20.56C161.301 21.072 161.509 21.624 161.573 22.216H159.749C159.685 21.704 159.429 21.264 158.981 20.896C158.549 20.528 157.829 20.344 156.821 20.344C154.917 20.344 153.965 20.92 153.965 22.072C153.965 22.552 154.157 22.92 154.541 23.176C154.925 23.432 155.421 23.64 156.029 23.8C156.637 23.944 157.277 24.088 157.949 24.232C158.637 24.36 159.285 24.544 159.893 24.784C160.501 25.024 160.997 25.368 161.381 25.816C161.765 26.248 161.957 26.84 161.957 27.592C161.957 28.76 161.509 29.656 160.613 30.28C159.733 30.888 158.549 31.192 157.061 31.192ZM164.271 31V14.2H166.071V20.872C166.503 20.296 167.031 19.808 167.655 19.408C168.279 19.008 169.079 18.808 170.055 18.808C170.887 18.808 171.663 19.008 172.383 19.408C173.119 19.792 173.711 20.376 174.159 21.16C174.623 21.928 174.855 22.88 174.855 24.016V31H173.055V24.064C173.055 22.976 172.743 22.104 172.119 21.448C171.495 20.776 170.687 20.44 169.695 20.44C169.023 20.44 168.415 20.592 167.871 20.896C167.327 21.2 166.887 21.632 166.551 22.192C166.231 22.736 166.071 23.368 166.071 24.088V31H164.271Z" fill="#F9F9F9"/>
</svg>
