<svg width="16" height="20" viewBox="0 0 16 20" fill="none" xmlns="http://www.w3.org/2000/svg">
<path d="M0.666748 16.4167V14.5833H2.50008V8.16666C2.50008 6.89861 2.88203 5.77569 3.64591 4.79791C4.4098 3.80486 5.40286 3.15555 6.62508 2.84999V2.20833C6.62508 1.82638 6.75494 1.50555 7.01467 1.24583C7.28967 0.970828 7.61814 0.833328 8.00008 0.833328C8.38203 0.833328 8.70286 0.970828 8.96258 1.24583C9.23758 1.50555 9.37508 1.82638 9.37508 2.20833V2.84999C10.5973 3.15555 11.5904 3.80486 12.3542 4.79791C13.1181 5.77569 13.5001 6.89861 13.5001 8.16666V14.5833H15.3334V16.4167H0.666748ZM8.00008 19.1667C7.49592 19.1667 7.0605 18.991 6.69383 18.6396C6.34244 18.2729 6.16675 17.8375 6.16675 17.3333H9.83342C9.83342 17.8375 9.65008 18.2729 9.28341 18.6396C8.93203 18.991 8.50425 19.1667 8.00008 19.1667ZM4.33341 14.5833H11.6667V8.16666C11.6667 7.15833 11.3077 6.29513 10.5897 5.57708C9.87161 4.85902 9.00842 4.49999 8.00008 4.49999C6.99175 4.49999 6.12855 4.85902 5.4105 5.57708C4.69244 6.29513 4.33341 7.15833 4.33341 8.16666V14.5833Z" fill="#F9F9F9"/>
</svg>
