<svg width="214" height="50" viewBox="0 0 214 50" fill="none" xmlns="http://www.w3.org/2000/svg">
<path d="M24.9999 34.9999C19.477 34.9999 14.9999 30.5227 14.9999 24.9999C14.9999 19.4771 19.477 14.9999 24.9999 14.9999C30.5227 14.9999 34.9999 19.4771 34.9999 24.9999C34.9999 30.5227 30.5227 34.9999 24.9999 34.9999Z" fill="#F9F9F9"/>
<path d="M5.62837 28.4161C2.73045 28.9271 0.744087 31.7264 1.8565 34.4508C3.40957 38.2541 5.88729 41.6427 9.09947 44.2907C13.6927 48.0769 19.486 50.1 25.4377 49.9962C31.3893 49.8924 37.1087 47.6682 41.567 43.7239C44.6847 40.9656 47.0427 37.4924 48.4622 33.6373C49.4788 30.8758 47.3958 28.1475 44.4818 27.738C41.568 27.3285 38.9517 29.4494 37.5123 32.0161C36.7322 33.4073 35.7193 34.6694 34.506 35.7429C31.948 38.0061 28.6665 39.2821 25.2518 39.3417C21.837 39.4012 18.513 38.2406 15.8777 36.0681C14.6275 35.0376 13.5713 33.8116 12.743 32.4484C11.215 29.9336 8.52629 27.9051 5.62837 28.4161Z" fill="#F9F9F9"/>
<path d="M49.8067 28.1241C49.9343 27.1006 50 26.0579 50 24.9999C50 11.1928 38.8072 0 25 0C11.1929 0 0 11.1928 0 24.9999C0 26.3577 0.10825 27.6902 0.3166 28.9894C1.4649 27.4174 3.2571 26.2952 5.19293 25.9539C7.28742 25.5846 9.19097 26.0926 10.8005 27.0421C10.7054 26.3751 10.6562 25.6932 10.6562 24.9999C10.6562 17.0781 17.0782 10.6561 25 10.6561C32.9218 10.6561 39.3438 17.0781 39.3438 24.9999C39.3438 25.5222 39.3158 26.0381 39.2615 26.5459C40.837 25.5404 42.722 24.9659 44.8285 25.2621C46.7745 25.5356 48.6042 26.5939 49.8067 28.1241Z" fill="#F9F9F9"/>
<path d="M63.944 32V16.112H71.096C72.792 16.112 74.128 16.576 75.104 17.504C76.08 18.416 76.568 19.656 76.568 21.224C76.568 22.792 76.08 24.04 75.104 24.968C74.128 25.88 72.792 26.336 71.096 26.336H65.744V32H63.944ZM65.744 24.656H70.976C72.224 24.656 73.168 24.352 73.808 23.744C74.448 23.136 74.768 22.296 74.768 21.224C74.768 20.168 74.448 19.336 73.808 18.728C73.168 18.12 72.224 17.816 70.976 17.816H65.744V24.656ZM83.8383 32.192C82.6223 32.192 81.5663 31.92 80.6703 31.376C79.7743 30.816 79.0863 30.064 78.6063 29.12C78.1263 28.176 77.8863 27.136 77.8863 26C77.8863 24.848 78.1263 23.808 78.6063 22.88C79.0863 21.936 79.7743 21.192 80.6703 20.648C81.5663 20.088 82.6223 19.808 83.8383 19.808C85.0703 19.808 86.1263 20.088 87.0063 20.648C87.9023 21.192 88.5903 21.936 89.0703 22.88C89.5503 23.808 89.7903 24.848 89.7903 26C89.7903 27.136 89.5503 28.176 89.0703 29.12C88.5903 30.064 87.9023 30.816 87.0063 31.376C86.1263 31.92 85.0703 32.192 83.8383 32.192ZM83.8383 30.56C84.7343 30.56 85.4863 30.352 86.0943 29.936C86.7183 29.52 87.1903 28.968 87.5103 28.28C87.8303 27.576 87.9903 26.816 87.9903 26C87.9903 25.168 87.8303 24.408 87.5103 23.72C87.1903 23.032 86.7183 22.48 86.0943 22.064C85.4863 21.648 84.7343 21.44 83.8383 21.44C82.9583 21.44 82.2063 21.648 81.5823 22.064C80.9583 22.48 80.4863 23.032 80.1663 23.72C79.8463 24.408 79.6863 25.168 79.6863 26C79.6863 26.816 79.8463 27.576 80.1663 28.28C80.4863 28.968 80.9583 29.52 81.5823 29.936C82.2063 30.352 82.9583 30.56 83.8383 30.56ZM92.1772 32V20H93.9772V21.872C94.4092 21.296 94.9372 20.808 95.5612 20.408C96.1852 20.008 96.9852 19.808 97.9612 19.808C98.7932 19.808 99.5692 20.008 100.289 20.408C101.025 20.792 101.617 21.376 102.065 22.16C102.529 22.928 102.761 23.88 102.761 25.016V32H100.961V25.064C100.961 23.976 100.649 23.104 100.025 22.448C99.4012 21.776 98.5932 21.44 97.6012 21.44C96.9292 21.44 96.3212 21.592 95.7772 21.896C95.2332 22.2 94.7932 22.632 94.4572 23.192C94.1372 23.736 93.9772 24.368 93.9772 25.088V32H92.1772ZM111.267 36.944C109.763 36.944 108.539 36.616 107.595 35.96C106.651 35.32 106.011 34.48 105.675 33.44H107.667C107.907 34.032 108.323 34.488 108.915 34.808C109.507 35.144 110.259 35.312 111.171 35.312C112.547 35.312 113.547 34.984 114.171 34.328C114.811 33.688 115.131 32.752 115.131 31.52V29.864C114.683 30.504 114.099 31.024 113.379 31.424C112.675 31.808 111.827 32 110.835 32C109.667 32 108.643 31.736 107.763 31.208C106.899 30.664 106.227 29.928 105.747 29C105.267 28.072 105.027 27.04 105.027 25.904C105.027 24.752 105.267 23.72 105.747 22.808C106.227 21.88 106.899 21.152 107.763 20.624C108.643 20.08 109.667 19.808 110.835 19.808C111.827 19.808 112.675 20 113.379 20.384C114.099 20.752 114.683 21.264 115.131 21.92V20H116.931V31.64C116.931 33.352 116.435 34.664 115.443 35.576C114.467 36.488 113.075 36.944 111.267 36.944ZM111.075 30.368C111.955 30.368 112.699 30.168 113.307 29.768C113.931 29.368 114.403 28.832 114.723 28.16C115.059 27.472 115.227 26.72 115.227 25.904C115.227 25.072 115.059 24.32 114.723 23.648C114.403 22.976 113.931 22.44 113.307 22.04C112.699 21.64 111.955 21.44 111.075 21.44C110.195 21.44 109.435 21.64 108.795 22.04C108.155 22.44 107.667 22.976 107.331 23.648C106.995 24.32 106.827 25.072 106.827 25.904C106.827 26.72 106.995 27.472 107.331 28.16C107.667 28.832 108.155 29.368 108.795 29.768C109.435 30.168 110.195 30.368 111.075 30.368ZM120.428 32V16.112H128.036C129.668 16.112 130.964 16.56 131.924 17.456C132.9 18.352 133.388 19.56 133.388 21.08C133.388 22.104 133.188 22.92 132.788 23.528C132.404 24.136 131.916 24.6 131.324 24.92C130.732 25.224 130.14 25.448 129.548 25.592L133.724 32H131.588L127.748 25.904H122.228V32H120.428ZM122.228 24.2H127.724C128.3 24.2 128.884 24.112 129.476 23.936C130.068 23.76 130.564 23.448 130.964 23C131.38 22.536 131.588 21.896 131.588 21.08C131.588 20.072 131.244 19.28 130.556 18.704C129.868 18.112 128.956 17.816 127.82 17.816H122.228V24.2ZM140.779 32.192C139.963 32.192 139.187 32 138.451 31.616C137.715 31.216 137.115 30.632 136.651 29.864C136.203 29.08 135.979 28.12 135.979 26.984V20H137.779V26.936C137.779 28.024 138.091 28.904 138.715 29.576C139.355 30.232 140.163 30.56 141.139 30.56C141.811 30.56 142.419 30.408 142.963 30.104C143.507 29.784 143.939 29.352 144.259 28.808C144.595 28.264 144.763 27.632 144.763 26.912V20H146.563V32H144.763V30.128C144.331 30.704 143.803 31.192 143.179 31.592C142.555 31.992 141.755 32.192 140.779 32.192ZM154.061 32.192C152.957 32.192 152.021 32.008 151.253 31.64C150.501 31.272 149.925 30.792 149.525 30.2C149.125 29.592 148.901 28.936 148.853 28.232H150.725C150.773 28.632 150.909 29.024 151.133 29.408C151.373 29.776 151.733 30.08 152.213 30.32C152.693 30.544 153.317 30.656 154.085 30.656C154.325 30.656 154.621 30.632 154.973 30.584C155.325 30.536 155.661 30.448 155.981 30.32C156.317 30.192 156.597 30 156.821 29.744C157.045 29.488 157.157 29.16 157.157 28.76C157.157 28.264 156.965 27.88 156.581 27.608C156.197 27.336 155.701 27.128 155.093 26.984C154.485 26.824 153.837 26.672 153.149 26.528C152.477 26.384 151.837 26.2 151.229 25.976C150.621 25.736 150.125 25.408 149.741 24.992C149.357 24.56 149.165 23.976 149.165 23.24C149.165 22.152 149.557 21.312 150.341 20.72C151.141 20.112 152.317 19.808 153.869 19.808C154.925 19.808 155.781 19.976 156.437 20.312C157.109 20.632 157.613 21.048 157.949 21.56C158.301 22.072 158.509 22.624 158.573 23.216H156.749C156.685 22.704 156.429 22.264 155.981 21.896C155.549 21.528 154.829 21.344 153.821 21.344C151.917 21.344 150.965 21.92 150.965 23.072C150.965 23.552 151.157 23.92 151.541 24.176C151.925 24.432 152.421 24.64 153.029 24.8C153.637 24.944 154.277 25.088 154.949 25.232C155.637 25.36 156.285 25.544 156.893 25.784C157.501 26.024 157.997 26.368 158.381 26.816C158.765 27.248 158.957 27.84 158.957 28.592C158.957 29.76 158.509 30.656 157.613 31.28C156.733 31.888 155.549 32.192 154.061 32.192ZM161.271 32V15.2H163.071V21.872C163.503 21.296 164.031 20.808 164.655 20.408C165.279 20.008 166.079 19.808 167.055 19.808C167.887 19.808 168.663 20.008 169.383 20.408C170.119 20.792 170.711 21.376 171.159 22.16C171.623 22.928 171.855 23.88 171.855 25.016V32H170.055V25.064C170.055 23.976 169.743 23.104 169.119 22.448C168.495 21.776 167.687 21.44 166.695 21.44C166.023 21.44 165.415 21.592 164.871 21.896C164.327 22.2 163.887 22.632 163.551 23.192C163.231 23.736 163.071 24.368 163.071 25.088V32H161.271Z" fill="#F9F9F9"/>
</svg>
