<svg width="17" height="16" viewBox="0 0 17 16" fill="none" xmlns="http://www.w3.org/2000/svg">
<path d="M8.5 9.90909C9.62967 9.90909 10.5455 9.05436 10.5455 8C10.5455 6.94564 9.62967 6.09091 8.5 6.09091C7.37033 6.09091 6.45455 6.94564 6.45455 8C6.45455 9.05436 7.37033 9.90909 8.5 9.90909Z" stroke="#F9F9F9" stroke-linecap="round" stroke-linejoin="round"/>
<path d="M13.5455 9.90909C13.4547 10.101 13.4276 10.3139 13.4677 10.5204C13.5078 10.7268 13.6133 10.9173 13.7705 11.0673L13.8114 11.1055C13.9382 11.2237 14.0387 11.364 14.1074 11.5185C14.176 11.673 14.2113 11.8387 14.2113 12.0059C14.2113 12.1732 14.176 12.3388 14.1074 12.4933C14.0387 12.6478 13.9382 12.7882 13.8114 12.9064C13.6847 13.0247 13.5343 13.1186 13.3688 13.1826C13.2032 13.2467 13.0258 13.2796 12.8466 13.2796C12.6674 13.2796 12.4899 13.2467 12.3244 13.1826C12.1589 13.1186 12.0085 13.0247 11.8818 12.9064L11.8409 12.8682C11.6802 12.7215 11.4761 12.6231 11.2549 12.5856C11.0338 12.5482 10.8056 12.5735 10.6 12.6582C10.3983 12.7388 10.2264 12.8728 10.1052 13.0435C9.98407 13.2143 9.91906 13.4143 9.91818 13.6191V13.7273C9.91818 14.0648 9.77451 14.3885 9.51878 14.6272C9.26305 14.8659 8.9162 15 8.55455 15C8.19289 15 7.84604 14.8659 7.59031 14.6272C7.33458 14.3885 7.19091 14.0648 7.19091 13.7273V13.67C7.18563 13.4594 7.11258 13.2551 6.98126 13.0837C6.84993 12.9123 6.66641 12.7818 6.45455 12.7091C6.2489 12.6244 6.02078 12.5991 5.7996 12.6365C5.57842 12.674 5.37433 12.7724 5.21364 12.9191L5.17273 12.9573C5.04608 13.0756 4.89569 13.1695 4.73015 13.2335C4.5646 13.2976 4.38716 13.3305 4.20795 13.3305C4.02875 13.3305 3.85131 13.2976 3.68576 13.2335C3.52022 13.1695 3.36983 13.0756 3.24318 12.9573C3.1164 12.8391 3.01582 12.6987 2.94719 12.5442C2.87857 12.3897 2.84325 12.2241 2.84325 12.0568C2.84325 11.8896 2.87857 11.7239 2.94719 11.5694C3.01582 11.4149 3.1164 11.2746 3.24318 11.1564L3.28409 11.1182C3.44128 10.9682 3.54672 10.7777 3.58682 10.5713C3.62693 10.3649 3.59985 10.1519 3.50909 9.96C3.42266 9.77178 3.27915 9.61126 3.09623 9.4982C2.9133 9.38513 2.69895 9.32445 2.47955 9.32364H2.36364C2.00198 9.32364 1.65513 9.18955 1.3994 8.95086C1.14367 8.71218 1 8.38846 1 8.05091C1 7.71336 1.14367 7.38964 1.3994 7.15096C1.65513 6.91227 2.00198 6.77818 2.36364 6.77818H2.425C2.65068 6.77325 2.86955 6.70508 3.05316 6.58251C3.23677 6.45994 3.37662 6.28865 3.45455 6.09091C3.54531 5.89897 3.57238 5.68606 3.53228 5.47963C3.49217 5.27319 3.38673 5.0827 3.22955 4.93273L3.18864 4.89455C3.06185 4.77634 2.96127 4.63598 2.89265 4.48147C2.82402 4.32696 2.7887 4.16135 2.7887 3.99409C2.7887 3.82683 2.82402 3.66122 2.89265 3.50671C2.96127 3.35221 3.06185 3.21184 3.18864 3.09364C3.31528 2.9753 3.46567 2.88143 3.63122 2.81738C3.79676 2.75333 3.97421 2.72036 4.15341 2.72036C4.33261 2.72036 4.51006 2.75333 4.6756 2.81738C4.84114 2.88143 4.99154 2.9753 5.11818 3.09364L5.15909 3.13182C5.31978 3.27852 5.52387 3.37694 5.74505 3.41437C5.96623 3.4518 6.19435 3.42653 6.4 3.34182H6.45455C6.65621 3.26115 6.82819 3.12721 6.94934 2.95648C7.07048 2.78575 7.13549 2.58568 7.13636 2.38091V2.27273C7.13636 1.93518 7.28003 1.61146 7.53576 1.37277C7.7915 1.13409 8.13834 1 8.5 1C8.86166 1 9.2085 1.13409 9.46424 1.37277C9.71997 1.61146 9.86364 1.93518 9.86364 2.27273V2.33C9.86451 2.53477 9.92952 2.73484 10.0507 2.90557C10.1718 3.0763 10.3438 3.21024 10.5455 3.29091C10.7511 3.37562 10.9792 3.40089 11.2004 3.36346C11.4216 3.32603 11.6257 3.22761 11.7864 3.08091L11.8273 3.04273C11.9539 2.92439 12.1043 2.83052 12.2699 2.76647C12.4354 2.70242 12.6128 2.66945 12.792 2.66945C12.9712 2.66945 13.1487 2.70242 13.3142 2.76647C13.4798 2.83052 13.6302 2.92439 13.7568 3.04273C13.8836 3.16093 13.9842 3.3013 14.0528 3.4558C14.1214 3.61031 14.1568 3.77593 14.1568 3.94318C14.1568 4.11044 14.1214 4.27605 14.0528 4.43056C13.9842 4.58507 13.8836 4.72543 13.7568 4.84364L13.7159 4.88182C13.5587 5.0318 13.4533 5.22228 13.4132 5.42872C13.3731 5.63515 13.4001 5.84806 13.4909 6.04V6.09091C13.5773 6.27913 13.7208 6.43965 13.9038 6.55271C14.0867 6.66578 14.3011 6.72646 14.5205 6.72727H14.6364C14.998 6.72727 15.3449 6.86136 15.6006 7.10005C15.8563 7.33873 16 7.66245 16 8C16 8.33755 15.8563 8.66127 15.6006 8.89995C15.3449 9.13864 14.998 9.27273 14.6364 9.27273H14.575C14.3556 9.27354 14.1412 9.33422 13.9583 9.44729C13.7754 9.56035 13.6319 9.72087 13.5455 9.90909Z" stroke="#F9F9F9" stroke-linecap="round" stroke-linejoin="round"/>
</svg>
