<svg width="680" height="680" viewBox="0 0 680 680" fill="none" xmlns="http://www.w3.org/2000/svg">
<path d="M96.8085 1.32812C52.7201 8.89844 17.9275 39.7109 4.78067 83.0078C1.19517 94.8281 1.06237 95.3594 0.531185 139.719L0 184.609H203.975H407.95V143.57C407.95 113.688 407.419 99.875 406.091 92.7031C399.186 56.7109 375.282 26.4297 341.286 10.7578C318.711 0.265625 325.616 0.796875 208.092 0.53125C150.458 0.398438 100.261 0.796875 96.8085 1.32812Z" fill="#F9F9F9"/>
<path d="M404.365 6.90625C423.886 27.7578 436.103 49.6719 443.54 76.8984C446.859 89.25 446.992 91.1094 447.523 137.062L448.055 184.609H495.861H543.801L543.004 141.711C542.473 104.125 541.942 97.6172 539.551 87.9219C533.841 65.4766 523.217 47.5469 505.821 31.0781C482.316 8.63281 457.882 0 418.043 0H397.858L404.365 6.90625Z" fill="#F9F9F9"/>
<path d="M0.265625 249.023V273.594H204.108H407.95V249.023V224.453H204.108H0.265625V249.023Z" fill="#F9F9F9"/>
<path d="M447.789 249.023V273.594H495.596H543.402V249.023V224.453H495.596H447.789V249.023Z" fill="#F9F9F9"/>
<path d="M0.265625 353.812C0.265625 406.805 2.39037 418.359 16.7324 442.93C24.0362 455.281 43.4244 474.805 55.5089 481.844C72.7724 492.07 92.559 498.047 108.893 498.047H116.728L117.658 488.75C122.438 436.555 171.44 400.297 222.699 411.055C253.774 417.562 280.333 443.328 288.434 474.938C289.894 480.648 291.089 488.086 291.089 491.672V498.047H300.252C320.305 498.047 347.395 487.688 365.854 472.945C385.508 457.406 400.646 432.438 405.825 407.469C407.552 399.367 407.95 388.344 407.95 355.273V313.438H204.108H0.265625V353.812Z" fill="#F9F9F9"/>
<path d="M448.719 314.367C448.187 314.766 447.789 333.758 447.789 356.469C447.789 402.82 446.594 414.242 439.688 433.766C437.431 440.273 433.181 450.234 430.393 455.812C425.214 466.039 425.214 466.172 425.214 482.242V498.445L437.564 497.648C453.499 496.719 462.795 494.195 478.996 486.227C505.157 473.344 523.881 453.023 534.638 425.797C541.676 408.266 542.473 401.359 542.606 355.938L542.738 314.102L496.127 313.703C470.497 313.57 449.25 313.836 448.719 314.367Z" fill="#F9F9F9"/>
<path d="M193.484 450.102C176.885 454.617 164.667 466.039 159.621 481.977C157.098 490.078 156.965 493.93 156.965 585.172V680H204.108H251.251L250.985 581.984L250.587 484.102L247.134 476.664C239.299 460.195 224.691 450.234 207.029 449.438C201.718 449.172 195.742 449.57 193.484 450.102Z" fill="#F9F9F9"/>
<path d="M378.735 512.922C367.846 520.227 345.934 529.922 332.655 533.375C325.484 535.234 313.399 537.094 305.697 537.625L291.753 538.555L291.355 609.211L291.089 680H338.232H385.375V594.336C385.375 547.188 385.242 508.672 385.109 508.805C384.844 508.805 382.055 510.664 378.735 512.922Z" fill="#F9F9F9"/>
<path d="M606.481 562.328C595.459 564.984 587.092 569.766 578.461 578.266C560.4 596.461 555.752 623.023 566.907 646.531C571.555 656.492 584.304 669.109 594.263 673.758C617.901 684.781 644.195 680.398 662.255 662.203C685.893 638.43 685.893 601.906 662.388 578.266C647.249 563.125 626.931 557.281 606.481 562.328Z" fill="#F9F9F9"/>
</svg>
