<svg width="15" height="14" viewBox="0 0 15 14" fill="none" xmlns="http://www.w3.org/2000/svg">
  <path d="M0 0H4.5V1.4H1.5V4.2H0V0Z" fill="#F9F9F9"/>
  <path d="M5.25 0H9.75V1.4H5.25V0Z" fill="#F9F9F9"/>
  <path d="M10.5 0H15V4.2H13.5V1.4H10.5V0Z" fill="#F9F9F9"/>
  <path d="M0 4.9H1.5V9.1H0V4.9Z" fill="#F9F9F9"/>
  <path d="M5.25 4.9H6.75V9.1H5.25V4.9Z" fill="#F9F9F9"/>
  <path d="M8.25 4.9H9.75V9.1H8.25V4.9Z" fill="#F9F9F9"/>
  <path d="M13.5 4.9H15V9.1H13.5V4.9Z" fill="#F9F9F9"/>
  <path d="M0 9.8H1.5V12.6H4.5V14H0V9.8Z" fill="#F9F9F9"/>
  <path d="M5.25 12.6H9.75V14H5.25V12.6Z" fill="#F9F9F9"/>
  <path d="M10.5 12.6H13.5V9.8H15V14H10.5V12.6Z" fill="#F9F9F9"/>
  <path d="M2.5 2.5L4 4L2.5 5.5L3.5 6.5L2 8L3.5 9.5L2.5 10.5L4 12L2.5 13.5L1 12L2.5 10.5L1 9L2.5 7.5L1 6L2.5 4.5L1 3L2.5 1.5L4 3L2.5 4.5L4 6L2.5 7.5L4 9L2.5 10.5L4 12L2.5 13.5L3.5 12.5L2.5 11L4 9.5L2.5 8L4 6.5L2.5 5L4 3.5L2.5 2Z" fill="#F9F9F9" opacity="0.7"/>
  <circle cx="11.5" cy="3.5" r="1.5" stroke="#F9F9F9" stroke-width="1" fill="none" opacity="0.7"/>
</svg>
