<svg width="15" height="14" viewBox="0 0 15 14" fill="none" xmlns="http://www.w3.org/2000/svg">
<path d="M14.3182 1.27273C14.499 1.27273 14.6724 1.20568 14.8003 1.08634C14.9282 0.966999 15 0.805138 15 0.636364C15 0.467589 14.9282 0.305728 14.8003 0.186387C14.6724 0.0670452 14.499 0 14.3182 0H12.9545C12.7737 0 12.6003 0.0670452 12.4724 0.186387C12.3446 0.305728 12.2727 0.467589 12.2727 0.636364V1.90909H10.9091C10.7283 1.90909 10.5548 1.97614 10.427 2.09548C10.2991 2.21482 10.2273 2.37668 10.2273 2.54545V6.36364H9.42C9.28115 5.99165 9.02171 5.66922 8.67767 5.44105C8.33364 5.21289 7.92205 5.09031 7.5 5.09031C7.07795 5.09031 6.66637 5.21289 6.32233 5.44105C5.97829 5.66922 5.71885 5.99165 5.58 6.36364H4.77273V2.54545C4.77273 2.37668 4.70089 2.21482 4.57303 2.09548C4.44516 1.97614 4.27174 1.90909 4.09091 1.90909H2.72727V0.636364C2.72727 0.467589 2.65544 0.305728 2.52757 0.186387C2.39971 0.0670452 2.22628 0 2.04545 0H0.681818C0.500989 0 0.327566 0.0670452 0.1997 0.186387C0.0718342 0.305728 0 0.467589 0 0.636364C0 0.805138 0.0718342 0.966999 0.1997 1.08634C0.327566 1.20568 0.500989 1.27273 0.681818 1.27273H1.36364V3.81818H0.681818C0.500989 3.81818 0.327566 3.88523 0.1997 4.00457C0.0718342 4.12391 0 4.28577 0 4.45455C0 4.62332 0.0718342 4.78518 0.1997 4.90452C0.327566 5.02386 0.500989 5.09091 0.681818 5.09091H2.04545C2.22628 5.09091 2.39971 5.02386 2.52757 4.90452C2.65544 4.78518 2.72727 4.62332 2.72727 4.45455V3.18182H3.40909V10.8182H2.72727V9.54545C2.72727 9.37668 2.65544 9.21482 2.52757 9.09548C2.39971 8.97614 2.22628 8.90909 2.04545 8.90909H0.681818C0.500989 8.90909 0.327566 8.97614 0.1997 9.09548C0.0718342 9.21482 0 9.37668 0 9.54545C0 9.71423 0.0718342 9.87609 0.1997 9.99543C0.327566 10.1148 0.500989 10.1818 0.681818 10.1818H1.36364V12.7273H0.681818C0.500989 12.7273 0.327566 12.7943 0.1997 12.9137C0.0718342 13.033 0 13.1949 0 13.3636C0 13.5324 0.0718342 13.6943 0.1997 13.8136C0.327566 13.933 0.500989 14 0.681818 14H2.04545C2.22628 14 2.39971 13.933 2.52757 13.8136C2.65544 13.6943 2.72727 13.5324 2.72727 13.3636V12.0909H4.09091C4.27174 12.0909 4.44516 12.0239 4.57303 11.9045C4.70089 11.7852 4.77273 11.6233 4.77273 11.4545V7.63636H5.58C5.71885 8.00835 5.97829 8.33078 6.32233 8.55894C6.66637 8.78711 7.07795 8.90969 7.5 8.90969C7.92205 8.90969 8.33364 8.78711 8.67767 8.55894C9.02171 8.33078 9.28115 8.00835 9.42 7.63636H10.2273V11.4545C10.2273 11.6233 10.2991 11.7852 10.427 11.9045C10.5548 12.0239 10.7283 12.0909 10.9091 12.0909H12.2727V13.3636C12.2727 13.5324 12.3446 13.6943 12.4724 13.8136C12.6003 13.933 12.7737 14 12.9545 14H14.3182C14.499 14 14.6724 13.933 14.8003 13.8136C14.9282 13.6943 15 13.5324 15 13.3636C15 13.1949 14.9282 13.033 14.8003 12.9137C14.6724 12.7943 14.499 12.7273 14.3182 12.7273H13.6364V10.1818H14.3182C14.499 10.1818 14.6724 10.1148 14.8003 9.99543C14.9282 9.87609 15 9.71423 15 9.54545C15 9.37668 14.9282 9.21482 14.8003 9.09548C14.6724 8.97614 14.499 8.90909 14.3182 8.90909H12.9545C12.7737 8.90909 12.6003 8.97614 12.4724 9.09548C12.3446 9.21482 12.2727 9.37668 12.2727 9.54545V10.8182H11.5909V3.18182H12.2727V4.45455C12.2727 4.62332 12.3446 4.78518 12.4724 4.90452C12.6003 5.02386 12.7737 5.09091 12.9545 5.09091H14.3182C14.499 5.09091 14.6724 5.02386 14.8003 4.90452C14.9282 4.78518 15 4.62332 15 4.45455C15 4.28577 14.9282 4.12391 14.8003 4.00457C14.6724 3.88523 14.499 3.81818 14.3182 3.81818H13.6364V1.27273H14.3182ZM7.5 7.63636C7.36515 7.63636 7.23333 7.59904 7.1212 7.52912C7.00908 7.45919 6.92169 7.35981 6.87008 7.24353C6.81848 7.12725 6.80497 6.99929 6.83128 6.87585C6.85759 6.75241 6.92253 6.63902 7.01788 6.55002C7.11324 6.46103 7.23472 6.40042 7.36698 6.37586C7.49924 6.35131 7.63634 6.36391 7.76092 6.41208C7.88551 6.46024 7.99199 6.54181 8.06691 6.64645C8.14183 6.7511 8.18182 6.87414 8.18182 7C8.18182 7.16877 8.10998 7.33064 7.98212 7.44998C7.85425 7.56932 7.68083 7.63636 7.5 7.63636Z" fill="#F9F9F9"/>
</svg>
