<svg width="10" height="10" viewBox="0 0 10 10" fill="none" xmlns="http://www.w3.org/2000/svg">
<path d="M4.06593 6.06061C2.42729 6.06061 1.0989 7.28165 1.0989 8.78788C1.0989 9.06681 0.852904 9.29293 0.549451 9.29293C0.245997 9.29293 0 9.06681 0 8.78788C0 6.72378 1.82038 5.0505 4.06593 5.0505C4.90711 5.0505 5.68862 5.2853 6.33714 5.68749C5.99502 5.85369 5.70637 6.10046 5.50111 6.40031C5.07579 6.18384 4.58652 6.06061 4.06593 6.06061ZM4.06593 4.64646C2.67005 4.64646 1.53846 3.60632 1.53846 2.32323C1.53846 1.04015 2.67005 0 4.06593 0C5.46182 0 6.59341 1.04015 6.59341 2.32323C6.59341 3.60632 5.46182 4.64646 4.06593 4.64646ZM4.06593 3.63636C4.85491 3.63636 5.49451 3.04845 5.49451 2.32323C5.49451 1.59801 4.85491 1.0101 4.06593 1.0101C3.27696 1.0101 2.63736 1.59801 2.63736 2.32323C2.63736 3.04845 3.27696 3.63636 4.06593 3.63636ZM7.36264 10C5.90606 10 4.72527 8.91463 4.72527 7.57576C4.72527 6.23689 5.90606 5.15152 7.36264 5.15152C8.81921 5.15152 10 6.23689 10 7.57576C10 8.91463 8.81921 10 7.36264 10ZM7.36264 8.9899C8.21231 8.9899 8.9011 8.35677 8.9011 7.57576C8.9011 6.79475 8.21231 6.16162 7.36264 6.16162C6.51297 6.16162 5.82418 6.79475 5.82418 7.57576C5.82418 8.35677 6.51297 8.9899 7.36264 8.9899ZM6.7033 7.07071H8.02198C8.32543 7.07071 8.57143 7.29683 8.57143 7.57576C8.57143 7.85469 8.32543 8.08081 8.02198 8.08081H6.7033C6.39984 8.08081 6.15385 7.85469 6.15385 7.57576C6.15385 7.29683 6.39984 7.07071 6.7033 7.07071Z" fill="#F9F9F9"/>
</svg>
