<svg width="1401" height="1024" viewBox="0 0 1401 1024" fill="none" xmlns="http://www.w3.org/2000/svg">
<path d="M717.067 -164.991C704.001 -63.2578 692.667 -6.05787 674.934 47.5421C658.267 98.0755 640.401 130.742 615.201 157.009C595.067 177.942 576.668 189.409 551.068 196.742C505.601 209.942 449.867 199.942 375.201 165.009C368.001 161.675 361.867 158.875 361.734 158.875C361.467 158.875 366.801 169.809 373.467 183.142C398.134 232.609 407.601 269.675 404.801 305.142C403.467 320.742 400.667 331.142 393.601 346.475C386.134 362.342 381.467 369.142 368.401 382.742C319.601 433.275 227.467 467.275 38.2675 504.875C17.3342 509.009 0.134154 512.475 0.000820528 512.742C-0.132513 512.875 16.0008 516.475 36.0008 520.875C179.467 551.809 266.001 581.542 322.401 619.009C342.534 632.475 366.267 655.409 376.667 671.409C390.001 691.942 396.667 713.009 397.867 738.209C399.467 771.142 391.467 803.675 371.734 844.475C367.601 853.142 364.267 860.209 364.401 860.209C364.534 860.209 369.334 858.075 374.934 855.542C388.401 849.409 413.201 841.142 427.601 838.075C436.267 836.209 444.534 835.542 462.934 835.675C484.667 835.675 488.134 836.075 500.267 839.275C579.334 860.609 638.401 946.075 682.801 1103.54C689.334 1126.88 699.734 1168.08 702.267 1181.28C703.201 1185.81 704.134 1189.41 704.401 1189.14C704.667 1188.88 706.667 1176.34 708.934 1161.28C738.534 960.609 798.134 859.009 897.867 839.275C913.734 836.209 948.667 836.209 966.934 839.409C993.867 843.942 1027.07 854.209 1054.67 866.342C1061.87 869.409 1067.6 871.675 1067.33 871.142C1067.07 870.609 1062.27 860.875 1056.67 849.542C1040.67 817.275 1030.67 789.542 1025.33 762.209C1022.13 745.409 1022.13 715.142 1025.47 700.875C1044.93 616.342 1136.4 565.009 1340.93 524.209C1362.53 519.942 1384.93 515.675 1390.67 514.742C1396.27 513.809 1400.93 512.609 1400.93 512.209C1400.93 511.675 1392.93 509.942 1383.33 508.342C1356.4 503.809 1296.53 491.675 1269.6 485.542C1173.87 463.275 1105.07 434.742 1066.27 401.142C1019.07 360.342 1006.67 305.275 1029.07 235.542C1034.8 217.409 1047.33 187.942 1055.07 173.942C1057.6 169.409 1059.6 165.409 1059.6 165.142C1059.6 164.742 1051.07 168.475 1040.67 173.542C986.667 199.409 940.534 206.875 900.801 196.075C886.267 192.209 865.867 181.542 853.201 171.409C799.067 128.075 760.401 36.6088 723.734 -135.124C720.134 -152.058 717.067 -165.391 717.067 -164.991Z" fill="#F9F9F9"/>
</svg>
