<svg width="50" height="50" viewBox="0 0 50 50" fill="none" xmlns="http://www.w3.org/2000/svg">
<path d="M24.9437 0.262901C24.8719 0.784046 24.6008 4.65654 24.4573 7.35847C24.2101 11.8002 24.0187 17.0678 24.0028 19.8659C23.9948 20.7719 23.9709 21.71 23.9469 21.9505L23.8911 22.3835L22.2963 20.828C18.1578 16.7872 13.3813 12.3935 9.17902 8.76155C8.36567 8.06402 7.60016 7.39856 7.4646 7.28632C7.13767 6.99768 7.28918 7.19011 8.42149 8.52103C12.1135 12.8585 16.0925 17.2602 20.4384 21.7982L22.5036 23.9549H20.8849C16.5231 23.9549 7.13767 24.3718 1.84291 24.7967C1.02955 24.8609 0.279995 24.917 0.176332 24.917C-0.987877 24.917 3.84439 25.2938 7.86331 25.5183C12.568 25.7749 17.8388 25.9593 20.7653 25.9593H22.5116L20.566 27.9878C16.2201 32.5337 12.4484 36.6788 8.88398 40.856C7.0659 42.9807 7.08185 42.9566 8.02279 42.1548C12.0098 38.7714 17.4641 33.7845 22.097 29.2866L23.8911 27.5468L23.939 28.0198C23.9709 28.2764 23.9948 29.2625 24.0028 30.2086C24.0107 32.0286 24.1144 35.372 24.25 38.587C24.4334 42.8123 24.9038 49.8918 24.9995 49.9961C25.0234 50.0201 25.0474 49.9319 25.0474 49.7956C25.0474 49.6673 25.1191 48.609 25.2068 47.4384C25.5816 42.3312 25.8049 37.4565 25.9405 31.6758L26.0361 27.4987L27.9978 29.3908C32.6227 33.8727 36.6496 37.5688 40.7961 41.1526C42.8614 42.9325 42.8933 42.9566 42.351 42.3152C38.3481 37.5928 33.4042 32.1328 29.1939 27.7633L27.4954 25.9994L30.4378 25.9433C36.3147 25.839 44.3286 25.4542 48.6904 25.0774C49.1768 25.0293 49.6712 24.9972 49.7988 24.9972C49.9264 24.9972 50.0141 24.9812 49.9981 24.9651C49.9104 24.8769 42.1357 24.3798 38.0052 24.1954C36.2589 24.1233 30.7169 23.9629 28.6118 23.9308L27.5034 23.9148L29.0902 22.2712C33.4042 17.7733 37.5267 13.2434 41.1151 9.04217C41.8088 8.22438 42.4706 7.45469 42.5823 7.3264L42.7896 7.08588L42.4547 7.34244C42.0719 7.64711 38.7308 10.5575 37.1679 11.9606C34.1378 14.6785 31.1236 17.4927 27.9419 20.5715L26.0042 22.4476V21.4534C26.0042 17.3324 25.6215 8.32861 25.2068 2.42765C25.0155 -0.25824 25.0155 -0.242207 24.9437 0.262901Z" fill="#F9F9F9"/>
</svg>
